# xmcd CD database file
#
# Track frame offsets:
#	150
#	14178
#	25890
#	37893
#	52355
#	64662
#	77370
#	91529
#	105381
#	120176
#	134507
#	146854
#	159411
#	175313
#	189750
#	203957
#	217464
#	228698
#	241782
#	259792
#
# Disc length: 3568 seconds
#
# Revision: 1
# Processed by: cddbd v1.5.2PL0 Copyright (c) Steve Scherf et al.
# Submitted via: CDex 1.70beta2
#
DISCID=160dee14
DTITLE=Various Artist - The Great Song Stylists  Disc. 1
DYEAR=1998
DGENRE=Jazz
TTITLE0=More Than You Know  -  Billie Holiday
TTITLE1=It's Been A Long Long Time  -  Frank Sinatra
TTITLE2=A Tisket, A Tasket  -  Ella Fitzgerald
TTITLE3=Moonlight Become You  -  Bing Crosby
TTITLE4=I'll  Walk Alone  -  Dinah Shore
TTITLE5=You Stepped Out Of A Dream  -  Tony Martin
TTITLE6=I Get A Kick Out Of Yoy  -  Ethel Merman
TTITLE7=(I Love You) For Sentimental Reasons  -  Nat King Cole
TTITLE8='S Wonderful  -  Lee Wiley  
TTITLE9=How Sweet You Are  -  Jo Stafford
TTITLE10=Do I Worry  -  The Ink Spots
TTITLE11=They All Laughed  -  Frad Astaire
TTITLE12=Georgia On My Mind  -  Mildred Bailey
TTITLE13=If I Loved You  -  Perry Como
TTITLE14=Love Is All  -  Deanna Durbin
TTITLE15=Tell My Pretty Baby  -  Billy Eckstine
TTITLE16=It's Just A Matter Of Time  -  Brook Benton
TTITLE17=Little White Lies  -  Ella Fitzgerald
TTITLE18=Ain't Misbehavin'  -  Fats Waller
TTITLE19=Blue Skies  -  Doris Day
EXTD=YEAR: 1998
EXTT0=
EXTT1=
EXTT2=
EXTT3=
EXTT4=
EXTT5=
EXTT6=
EXTT7=
EXTT8=
EXTT9=
EXTT10=
EXTT11=
EXTT12=
EXTT13=
EXTT14=
EXTT15=
EXTT16=
EXTT17=
EXTT18=
EXTT19=
PLAYORDER=
